<svg width="610" height="448" viewBox="0 0 610 448" fill="none" xmlns="http://www.w3.org/2000/svg">
<path d="M55.6172 160.067C55.6172 160.067 180.632 180.782 305.572 180.782C430.512 180.782 555.378 160.067 555.378 160.067V374.543C555.378 404.651 524.847 431.203 498.554 434.666C498.554 434.666 428.608 449.819 312.689 447.818C196.77 445.818 106.787 434.666 106.787 434.666C78.6407 428.824 55.6172 404.651 55.6172 374.543V160.067Z" fill="#372F25"/>
<path d="M46.1132 176.805V161.041C46.1132 161.041 1.92526 153.891 0.0534309 178.324C-1.8184 202.757 46.1132 214.187 46.1132 214.187V196.717C46.1132 196.717 17.7631 189.565 17.4651 179.834C17.167 170.103 46.1132 176.805 46.1132 176.805Z" fill="#372F25"/>
<path d="M563.072 176.805V161.041C563.072 161.041 607.26 153.891 609.132 178.324C611.004 202.757 563.072 214.188 563.072 214.188V196.719C563.072 196.719 591.422 189.566 591.72 179.836C592.018 170.105 563.072 176.805 563.072 176.805Z" fill="#372F25"/>
<path d="M304.233 170.71H302.121L302.163 170.635C303.653 168.217 309.17 159.369 317.61 147.178C328.964 130.619 341.239 114.71 354.376 99.5259C382.266 67.8261 410.062 41.4469 411.232 40.3402C423.795 45.033 436.06 50.4885 447.958 56.6762C457.91 62.0476 467.602 67.8915 476.763 74.0497C461.404 89.7787 446.897 106.317 433.304 123.594C409.122 154.014 401.786 166.778 401.715 166.899C401.713 166.902 401.713 166.905 401.713 166.908C401.713 166.911 401.713 166.913 401.715 166.916C401.73 166.949 401.897 166.965 402.235 166.965C402.536 166.965 402.974 166.95 403.536 166.923C394.631 167.555 385.814 168.11 377.334 168.577C377.688 167.928 386.322 152.404 409.937 123.592C433.9 94.3525 462.072 65.1876 462.353 64.8987L453.129 59.5672C452.847 59.8816 423.143 92.9497 398.782 123.588C374.948 153.571 366.279 168.537 365.921 169.16C356.326 169.618 346.818 169.978 337.662 170.23C339.556 170.141 341.068 170.049 341.082 170.049V170.038C341.36 169.525 343.954 164.81 349.166 156.923C357.311 144.737 366.068 132.97 375.404 121.669C399.345 92.4554 437.474 52.3769 437.858 51.9753L428.001 47.2308C427.623 47.6505 388.49 91.1925 364.255 121.669C340.048 152.11 330.2 170.17 330.104 170.348C330.102 170.351 330.101 170.354 330.101 170.357C330.101 170.361 330.102 170.364 330.104 170.367C330.104 170.387 330.173 170.405 330.286 170.417C321.372 170.614 312.607 170.71 304.233 170.71ZM301.39 170.71H291.146L291.192 170.634C294.572 170.672 298.003 170.697 301.39 170.706V170.71ZM291.192 170.634C273.019 170.425 253.897 169.776 234.344 168.706H234.477C234.426 168.653 226.83 160.492 214.957 149.081C200.296 134.92 184.879 121.563 168.776 109.066C138.192 85.6557 134.465 83.8368 134.051 83.8368C134.044 83.8358 134.037 83.8365 134.03 83.8387C134.023 83.8409 134.017 83.8446 134.012 83.8495C134.011 83.8526 134.01 83.856 134.01 83.8595C134.01 83.863 134.011 83.8664 134.012 83.8695L129.406 86.8242C140.85 78.7863 153.045 71.8739 165.821 66.1834C179.012 60.5535 192.702 56.1702 206.71 53.091L206.654 53.031L208.375 52.6949L209.218 52.5313C208.468 52.6967 207.648 52.8766 206.71 53.091L249.492 99.0262C250.206 94.785 250.272 90.4602 249.69 86.1991C249.156 81.7985 248.041 77.4882 246.373 73.381C244.248 68.1914 241.288 63.3846 237.61 59.1511C234.587 55.5824 231.361 52.1908 227.947 48.9934C251.267 45.3864 274.828 43.5712 298.425 43.5638C305.748 43.5638 310.35 43.7582 310.857 43.7819C307.559 43.328 304.358 42.3341 301.383 40.8399C298.789 39.5631 296.511 37.7252 294.715 35.4594C292.643 32.7211 291.493 29.3963 291.43 25.9631C291.015 19.5571 293.14 13.2454 297.343 8.39331C300.375 5.11412 304.006 2.4447 308.04 0.528784C308.564 0.22335 309.151 0.0424273 309.755 0C311.271 0 311.451 1.90617 311.7 4.54282C311.719 7.94426 312.747 11.2636 314.653 14.0809C318.619 17.8728 323.627 20.3932 329.035 21.3185C335.976 22.8922 343.029 24.0551 350.509 25.2871C366.683 27.951 385.001 30.9693 408.165 39.23L400.543 36.7459C400.316 36.9713 376.265 60.8374 346.932 93.9073C317.941 126.601 292.282 168.851 291.192 170.634ZM324.699 81.0639C314.897 81.0639 296.122 83.8568 280.539 102.56C275.555 108.503 271.578 115.222 268.764 122.449C266.556 128.169 265.118 134.158 264.486 140.257C263.794 146.163 263.991 152.14 265.07 157.988L331.338 81.5545C329.143 81.2007 326.922 81.0365 324.699 81.0639ZM196.706 92.8752C190.3 92.7973 183.937 93.9407 177.959 96.2441L259.729 155.81C259.469 149.867 258.316 143.998 256.308 138.4C254.32 132.6 251.57 127.089 248.13 122.013C243.763 115.603 238.377 109.952 232.184 105.283C226.511 100.916 220.121 97.5718 213.3 95.3992C207.927 93.7228 202.332 92.87 196.704 92.8697L196.706 92.8752ZM301.067 55.0644C296.182 55.0772 291.34 55.9729 286.774 57.7083C280.082 60.317 274.151 64.5616 269.524 70.0539C265.846 74.2874 262.886 79.0943 260.761 84.2838C259.093 88.391 257.978 92.7012 257.444 97.1018C256.867 101.363 256.934 105.687 257.642 109.929L306.528 55.5096C304.729 55.1869 302.903 55.0372 301.076 55.0626L301.067 55.0644ZM331.262 170.452C330.798 170.452 330.467 170.441 330.282 170.419C332.543 170.37 335.027 170.308 337.662 170.238C334.544 170.381 332.443 170.45 331.26 170.45L331.262 170.452ZM366.499 169.276C366.112 169.276 365.916 169.258 365.898 169.222C365.896 169.219 365.895 169.216 365.895 169.214C365.895 169.211 365.896 169.208 365.898 169.205L365.919 169.169C369.62 168.987 373.436 168.806 377.267 168.586L376.934 168.615C370.005 169.158 367.433 169.274 366.497 169.274L366.499 169.276ZM234.279 168.709H225.025L224.402 168.132C227.555 168.326 230.879 168.52 234.279 168.706V168.709ZM224.402 168.132C198.83 166.56 158.232 163.369 110.04 157.096C81.1795 153.331 63.1173 150.224 62.9355 150.193L62.9592 150.156C68.4549 143.014 74.3075 136.154 80.4944 129.601C87.0149 122.614 93.8625 115.88 100.848 109.582C109.302 101.929 118.196 94.7776 127.486 88.1652C127.463 88.1422 127.441 88.1173 127.421 88.0907L129.406 86.8187C128.833 87.2167 128.204 87.6564 127.486 88.1652C127.93 88.634 131.703 92.1919 162.561 116.002C193.737 140.066 219.541 163.643 224.396 168.126L224.402 168.132ZM116.524 96.3695L110.127 101.735L147.644 134.495C164.787 150.089 177.575 163.861 177.702 163.999L190.536 165.284C190.409 165.148 174.662 148.305 156.798 131.342C138.966 114.408 116.748 96.5476 116.524 96.3695ZM403.707 166.916C406.796 166.696 409.951 166.463 413.088 166.225C411.276 166.374 406.466 166.778 403.707 166.916ZM413.5 166.189L413.864 166.158C414.135 165.613 420.784 152.493 444.465 123.597C468.399 94.3943 482.52 78.4345 482.66 78.2764L477.246 74.3805C484.385 79.1977 491.334 84.2929 497.905 89.5244C497.066 90.3403 491.763 95.8026 469.663 123.597C446.561 152.64 441.778 162.78 441.3 163.849C431.955 164.704 422.6 165.493 413.495 166.189H413.5ZM441.56 163.994C441.378 163.994 441.276 163.981 441.265 163.956C441.263 163.953 441.262 163.95 441.262 163.947C441.262 163.943 441.263 163.94 441.265 163.938L441.303 163.849C444.491 163.556 447.797 163.245 451.13 162.924C451.755 161.833 457.903 151.537 480.801 123.597C503.403 96.017 504.575 95.0685 504.633 95.0503C518.512 106.644 531.193 119.599 542.488 133.722C546.708 138.935 550.556 144.439 554.002 150.193L553.931 150.206C549.368 150.932 507.706 157.449 451.133 162.925L451.091 162.998L451.017 163.007C449.161 163.236 442.986 163.994 441.56 163.994ZM504.151 94.6378C502.105 92.9188 500.003 91.1998 497.902 89.5262C497.967 89.4626 498.027 89.4063 498.029 89.4063L504.155 94.6342L504.151 94.6378ZM209.374 52.5004C214.728 51.3302 220.338 50.2545 226.048 49.3059C222.537 49.9456 215.044 51.3902 209.374 52.5004ZM226.275 49.2659C227.286 49.0842 227.842 48.9879 227.929 48.9879H227.94C227.546 49.057 227.15 49.1224 226.753 49.1878L226.275 49.2659ZM411.229 40.3384C410.269 39.975 409.239 39.6116 408.168 39.2263L411.318 40.253L411.229 40.3384Z" fill="#372F25"/>
<path d="M139.715 282.41C136.629 282.41 133.914 281.873 131.57 280.799C129.246 279.725 127.439 278.172 126.15 276.141C124.861 274.09 124.217 271.6 124.217 268.67C124.217 265.623 124.93 263.006 126.355 260.818C127.801 258.611 129.773 256.922 132.273 255.75C134.773 254.578 137.605 253.992 140.77 253.992C142.215 253.992 143.66 254.148 145.105 254.461C146.551 254.754 147.771 255.135 148.768 255.604L149.09 262.84L146.131 263.016L144.432 258.064C143.201 257.459 141.834 257.156 140.33 257.156C137.693 257.156 135.652 258.084 134.207 259.939C132.762 261.775 132.039 264.305 132.039 267.527C132.039 269.93 132.43 272 133.211 273.738C134.012 275.457 135.076 276.785 136.404 277.723C137.732 278.66 139.207 279.129 140.828 279.129C141.707 279.129 142.547 279.021 143.348 278.807C144.148 278.572 144.852 278.221 145.457 277.752L147.127 273.387L150.35 273.738L149.002 280.037C147.986 280.682 146.639 281.238 144.959 281.707C143.299 282.176 141.551 282.41 139.715 282.41ZM159.455 282L159.338 279.627L162.355 278.836C162.355 278.582 162.365 278.025 162.385 277.166C162.404 276.307 162.424 275.359 162.443 274.324C162.463 273.289 162.473 272.371 162.473 271.57V264.861C162.473 262.947 162.434 261.297 162.355 259.91C162.297 258.523 162.219 257.742 162.121 257.566L159.133 256.805L159.279 254.402H171.613C175.246 254.402 177.932 254.988 179.67 256.16C181.428 257.312 182.307 259.119 182.307 261.58C182.307 263.143 181.828 264.529 180.871 265.74C179.934 266.932 178.635 267.869 176.975 268.553C175.314 269.236 173.41 269.578 171.262 269.578H168.127V266.795H170.295C171.818 266.795 173.049 266.316 173.986 265.359C174.943 264.402 175.422 263.133 175.422 261.551C175.422 258.582 173.889 257.098 170.822 257.098H169.094C169.055 257.293 169.025 258.152 169.006 259.676C168.986 261.18 168.977 262.801 168.977 264.539V271.57C168.977 272.371 168.986 273.26 169.006 274.236C169.025 275.193 169.045 276.092 169.064 276.932C169.104 277.771 169.133 278.406 169.152 278.836L171.76 279.627L171.643 282H159.455ZM184.182 282.557C181.506 282.557 179.25 281.922 177.414 280.652C175.598 279.383 174.074 277.371 172.844 274.617L170.266 268.816L175.568 267.586L181.193 275.379C183.029 277.918 185.061 279.48 187.287 280.066L187.258 282.264C186.281 282.459 185.256 282.557 184.182 282.557ZM194.957 282L194.811 279.627L197.799 278.865C197.877 278.67 197.945 277.879 198.004 276.492C198.082 275.086 198.121 273.445 198.121 271.57V264.861C198.121 262.947 198.082 261.287 198.004 259.881C197.945 258.475 197.877 257.693 197.799 257.537L194.811 256.805L194.957 254.402H207.877L207.994 256.805L205.006 257.537C204.908 257.752 204.83 258.562 204.771 259.969C204.713 261.375 204.684 263.006 204.684 264.861V271.57C204.684 273.387 204.713 274.998 204.771 276.404C204.83 277.791 204.908 278.611 205.006 278.865L207.994 279.627L207.877 282H194.957ZM226.797 282.41C225.469 282.41 224.004 282.225 222.402 281.854C220.801 281.482 219.434 280.975 218.301 280.33L218.066 273.299L221.172 273.123L222.754 278.045C223.379 278.455 224.111 278.777 224.951 279.012C225.791 279.227 226.611 279.334 227.412 279.334C228.799 279.334 229.854 279.041 230.576 278.455C231.299 277.869 231.66 277.078 231.66 276.082C231.66 275.027 231.338 274.168 230.693 273.504C230.049 272.84 229.209 272.283 228.174 271.834C227.158 271.365 226.074 270.906 224.922 270.457C223.77 270.008 222.676 269.471 221.641 268.846C220.625 268.201 219.785 267.371 219.121 266.355C218.477 265.34 218.154 264.031 218.154 262.43C218.154 259.891 219.219 257.83 221.348 256.248C223.477 254.666 226.289 253.875 229.785 253.875C230.859 253.875 232.051 254.002 233.359 254.256C234.668 254.49 235.762 254.803 236.641 255.193L237.227 262.107L234.18 262.312L232.656 257.625C231.621 257.156 230.508 256.922 229.316 256.922C228.086 256.922 227.051 257.244 226.211 257.889C225.391 258.514 224.98 259.402 224.98 260.555C224.98 261.59 225.303 262.439 225.947 263.104C226.611 263.748 227.461 264.314 228.496 264.803C229.551 265.271 230.664 265.74 231.836 266.209C233.008 266.678 234.111 267.234 235.146 267.879C236.201 268.523 237.061 269.334 237.725 270.311C238.389 271.287 238.721 272.527 238.721 274.031C238.721 275.652 238.223 277.098 237.227 278.367C236.23 279.617 234.834 280.604 233.037 281.326C231.26 282.049 229.18 282.41 226.797 282.41ZM247.973 282L247.826 279.627L250.639 278.865C250.736 278.67 250.814 277.908 250.873 276.58C250.932 275.252 250.961 273.66 250.961 271.805L251.02 264.422C251.02 262.664 250.98 261.111 250.902 259.764C250.844 258.396 250.766 257.615 250.668 257.42L247.68 256.805L247.826 254.402H259.926C263.852 254.402 266.771 255.105 268.686 256.512C270.6 257.918 271.557 259.92 271.557 262.518C271.557 265.115 270.551 267.293 268.539 269.051C266.527 270.809 263.686 271.688 260.014 271.688C259.486 271.688 258.959 271.658 258.432 271.6C257.904 271.521 257.406 271.443 256.938 271.365V268.084C257.25 268.201 257.66 268.318 258.168 268.436C258.695 268.533 259.311 268.582 260.014 268.582C263.061 268.582 264.584 266.766 264.584 263.133C264.584 261.043 264.076 259.52 263.061 258.562C262.064 257.586 260.648 257.098 258.812 257.098H257.641C257.602 257.449 257.572 258.211 257.553 259.383C257.553 260.535 257.553 262.215 257.553 264.422L257.611 271.805C257.611 273.66 257.65 275.252 257.729 276.58C257.807 277.908 257.865 278.66 257.904 278.836L261.742 279.539L261.596 282H247.973ZM304.1 257.566L294.08 273.533L296.248 268.729V273.445C296.248 274.129 296.258 274.871 296.277 275.672C296.297 276.453 296.326 277.146 296.365 277.752C296.404 278.357 296.443 278.729 296.482 278.865L299.793 279.568L299.676 282H286.375L286.229 279.568L289.539 278.865C289.578 278.729 289.607 278.357 289.627 277.752C289.666 277.146 289.695 276.453 289.715 275.672C289.754 274.871 289.773 274.129 289.773 273.445V268.729L291.326 273.533L281.922 257.566L279.549 256.805L279.666 254.402H292.293L292.439 256.805L289.451 257.566L295.369 267.762H294.227L300.145 257.566L296.834 256.805L296.98 254.402H306.355L306.502 256.805L304.1 257.566ZM345.66 282.41C342.574 282.41 339.859 281.873 337.516 280.799C335.191 279.725 333.385 278.172 332.096 276.141C330.807 274.09 330.162 271.6 330.162 268.67C330.162 265.623 330.875 263.006 332.301 260.818C333.746 258.611 335.719 256.922 338.219 255.75C340.719 254.578 343.551 253.992 346.715 253.992C348.16 253.992 349.605 254.148 351.051 254.461C352.496 254.754 353.717 255.135 354.713 255.604L355.035 262.84L352.076 263.016L350.377 258.064C349.146 257.459 347.779 257.156 346.275 257.156C343.639 257.156 341.598 258.084 340.152 259.939C338.707 261.775 337.984 264.305 337.984 267.527C337.984 269.93 338.375 272 339.156 273.738C339.957 275.457 341.021 276.785 342.35 277.723C343.678 278.66 345.152 279.129 346.773 279.129C347.652 279.129 348.492 279.021 349.293 278.807C350.094 278.572 350.797 278.221 351.402 277.752L353.072 273.387L356.295 273.738L354.947 280.037C353.932 280.682 352.584 281.238 350.904 281.707C349.244 282.176 347.496 282.41 345.66 282.41ZM365.4 282L365.283 279.627L368.301 278.836C368.301 278.582 368.311 278.025 368.33 277.166C368.35 276.307 368.369 275.359 368.389 274.324C368.408 273.289 368.418 272.371 368.418 271.57V264.861C368.418 262.947 368.379 261.297 368.301 259.91C368.242 258.523 368.164 257.742 368.066 257.566L365.078 256.805L365.225 254.402H377.559C381.191 254.402 383.877 254.988 385.615 256.16C387.373 257.312 388.252 259.119 388.252 261.58C388.252 263.143 387.773 264.529 386.816 265.74C385.879 266.932 384.58 267.869 382.92 268.553C381.26 269.236 379.355 269.578 377.207 269.578H374.072V266.795H376.24C377.764 266.795 378.994 266.316 379.932 265.359C380.889 264.402 381.367 263.133 381.367 261.551C381.367 258.582 379.834 257.098 376.768 257.098H375.039C375 257.293 374.971 258.152 374.951 259.676C374.932 261.18 374.922 262.801 374.922 264.539V271.57C374.922 272.371 374.932 273.26 374.951 274.236C374.971 275.193 374.99 276.092 375.01 276.932C375.049 277.771 375.078 278.406 375.098 278.836L377.705 279.627L377.588 282H365.4ZM390.127 282.557C387.451 282.557 385.195 281.922 383.359 280.652C381.543 279.383 380.02 277.371 378.789 274.617L376.211 268.816L381.514 267.586L387.139 275.379C388.975 277.918 391.006 279.48 393.232 280.066L393.203 282.264C392.227 282.459 391.201 282.557 390.127 282.557ZM400.814 254.402H413.676L413.822 256.805L410.805 257.566C410.766 258.113 410.717 259.012 410.658 260.262C410.6 261.512 410.58 263.045 410.6 264.861V269.52C410.541 275.105 412.748 277.898 417.221 277.898C421.518 277.898 423.666 275.096 423.666 269.49V265.711C423.666 264.402 423.646 263.152 423.607 261.961C423.588 260.77 423.549 259.773 423.49 258.973C423.451 258.152 423.402 257.684 423.344 257.566L420.033 256.805L420.18 254.402H430.756L430.902 256.805L427.885 257.566C427.807 257.723 427.738 258.611 427.68 260.232C427.621 261.834 427.592 263.66 427.592 265.711V270.369C427.592 274.08 426.586 277.02 424.574 279.188C422.562 281.336 419.799 282.41 416.283 282.41C412.318 282.41 409.271 281.365 407.143 279.275C405.014 277.186 403.949 274.197 403.949 270.311V264.861C403.949 262.928 403.92 261.277 403.861 259.91C403.803 258.523 403.744 257.742 403.686 257.566L400.697 256.805L400.814 254.402ZM449.559 282.41C448.23 282.41 446.766 282.225 445.164 281.854C443.562 281.482 442.195 280.975 441.062 280.33L440.828 273.299L443.934 273.123L445.516 278.045C446.141 278.455 446.873 278.777 447.713 279.012C448.553 279.227 449.373 279.334 450.174 279.334C451.561 279.334 452.615 279.041 453.338 278.455C454.061 277.869 454.422 277.078 454.422 276.082C454.422 275.027 454.1 274.168 453.455 273.504C452.811 272.84 451.971 272.283 450.936 271.834C449.92 271.365 448.836 270.906 447.684 270.457C446.531 270.008 445.438 269.471 444.402 268.846C443.387 268.201 442.547 267.371 441.883 266.355C441.238 265.34 440.916 264.031 440.916 262.43C440.916 259.891 441.98 257.83 444.109 256.248C446.238 254.666 449.051 253.875 452.547 253.875C453.621 253.875 454.812 254.002 456.121 254.256C457.43 254.49 458.523 254.803 459.402 255.193L459.988 262.107L456.941 262.312L455.418 257.625C454.383 257.156 453.27 256.922 452.078 256.922C450.848 256.922 449.812 257.244 448.973 257.889C448.152 258.514 447.742 259.402 447.742 260.555C447.742 261.59 448.064 262.439 448.709 263.104C449.373 263.748 450.223 264.314 451.258 264.803C452.312 265.271 453.426 265.74 454.598 266.209C455.77 266.678 456.873 267.234 457.908 267.879C458.963 268.523 459.822 269.334 460.486 270.311C461.15 271.287 461.482 272.527 461.482 274.031C461.482 275.652 460.984 277.098 459.988 278.367C458.992 279.617 457.596 280.604 455.799 281.326C454.021 282.049 451.941 282.41 449.559 282.41ZM495.959 254.168L497.043 262.547L494.084 262.781L492.209 257.361C491.896 257.322 491.564 257.293 491.213 257.273C490.861 257.234 490.471 257.215 490.041 257.215H488.459C488.186 257.215 487.883 257.225 487.551 257.244C487.219 257.244 486.955 257.273 486.76 257.332C486.74 257.527 486.721 258.113 486.701 259.09C486.682 260.047 486.672 261.209 486.672 262.576C486.672 263.924 486.672 265.301 486.672 266.707V270.926C486.672 272.664 486.682 274.236 486.701 275.643C486.74 277.049 486.779 278.123 486.818 278.865L490.891 279.539L490.744 282H475.92L475.803 279.539L479.875 278.865C479.895 278.123 479.924 277.049 479.963 275.643C480.002 274.236 480.021 272.664 480.021 270.926V266.707C480.021 265.301 480.012 263.924 479.992 262.576C479.992 261.209 479.982 260.047 479.963 259.09C479.963 258.113 479.953 257.527 479.934 257.332C479.738 257.273 479.465 257.244 479.113 257.244C478.781 257.225 478.479 257.215 478.205 257.215H476.594C475.754 257.215 474.992 257.264 474.309 257.361L472.551 262.898L469.592 262.605L470.559 254.168C471.008 254.168 471.652 254.188 472.492 254.227C473.352 254.266 474.23 254.305 475.129 254.344C476.027 254.383 476.76 254.402 477.326 254.402H489.191C489.758 254.402 490.48 254.383 491.359 254.344C492.258 254.305 493.137 254.266 493.996 254.227C494.855 254.188 495.51 254.168 495.959 254.168Z" fill="white"/>
<path d="M196.336 338.82C196.44 338.56 196.531 337.518 196.609 335.695C196.688 333.846 196.727 331.646 196.727 329.094V320.148C196.727 317.596 196.688 315.396 196.609 313.547C196.531 311.698 196.44 310.669 196.336 310.461L192.312 309.367L192.469 306.203H210.555C219.331 306.203 223.719 309.159 223.719 315.07C223.719 317.362 222.703 319.289 220.672 320.852C218.667 322.388 216.023 323.247 212.742 323.43L213.211 322.922C217.169 323.104 220.216 324.016 222.352 325.656C224.513 327.271 225.594 329.458 225.594 332.219C225.594 335.656 224.148 338.312 221.258 340.188C218.393 342.062 214.37 343 209.188 343H192.469L192.312 339.836L196.336 338.82ZM205.438 331.906C205.438 333.599 205.451 335.057 205.477 336.281C205.503 337.479 205.555 338.312 205.633 338.781C206.622 339.146 207.859 339.328 209.344 339.328C211.531 339.328 213.224 338.781 214.422 337.688C215.646 336.594 216.258 335.083 216.258 333.156C216.258 330.812 215.594 329.081 214.266 327.961C212.938 326.815 210.841 326.242 207.977 326.242C207.273 326.242 206.661 326.268 206.141 326.32C205.62 326.346 205.086 326.385 204.539 326.438V322.141C205.19 322.193 205.737 322.232 206.18 322.258C206.648 322.284 207.143 322.297 207.664 322.297C209.904 322.297 211.57 321.75 212.664 320.656C213.784 319.536 214.344 317.961 214.344 315.93C214.344 314.055 213.81 312.57 212.742 311.477C211.674 310.357 209.995 309.797 207.703 309.797H205.555C205.503 310.161 205.464 311.047 205.438 312.453C205.438 313.833 205.438 315.474 205.438 317.375V331.906ZM258.945 343.547C255.091 343.547 251.654 342.766 248.633 341.203C245.638 339.615 243.281 337.44 241.562 334.68C239.87 331.893 239.023 328.703 239.023 325.109C239.023 321.385 239.883 318.065 241.602 315.148C243.32 312.206 245.677 309.888 248.672 308.195C251.693 306.503 255.117 305.656 258.945 305.656C262.695 305.656 266.003 306.438 268.867 308C271.758 309.562 274.023 311.737 275.664 314.523C277.305 317.284 278.125 320.474 278.125 324.094C278.125 327.375 277.526 330.24 276.328 332.688C275.13 335.109 273.568 337.128 271.641 338.742C269.714 340.357 267.63 341.568 265.391 342.375C263.151 343.156 261.003 343.547 258.945 343.547ZM259.414 338.82C262.253 338.82 264.388 337.688 265.82 335.422C267.253 333.13 267.969 329.888 267.969 325.695C267.969 320.904 267.083 317.076 265.312 314.211C263.542 311.32 261.172 309.875 258.203 309.875C255.443 309.875 253.255 311.06 251.641 313.43C250.026 315.799 249.219 319.068 249.219 323.234C249.219 326.281 249.648 328.977 250.508 331.32C251.367 333.664 252.565 335.5 254.102 336.828C255.638 338.156 257.409 338.82 259.414 338.82ZM291.125 306.203H308.273L308.469 309.406L304.445 310.422C304.393 311.151 304.328 312.349 304.25 314.016C304.172 315.682 304.146 317.727 304.172 320.148V326.359C304.094 333.807 307.036 337.531 313 337.531C318.729 337.531 321.594 333.794 321.594 326.32V321.281C321.594 319.536 321.568 317.87 321.516 316.281C321.49 314.693 321.438 313.365 321.359 312.297C321.307 311.203 321.242 310.578 321.164 310.422L316.75 309.406L316.945 306.203H331.047L331.242 309.406L327.219 310.422C327.115 310.63 327.023 311.815 326.945 313.977C326.867 316.112 326.828 318.547 326.828 321.281V327.492C326.828 332.44 325.487 336.359 322.805 339.25C320.122 342.115 316.438 343.547 311.75 343.547C306.464 343.547 302.401 342.154 299.562 339.367C296.724 336.581 295.305 332.596 295.305 327.414V320.148C295.305 317.57 295.266 315.37 295.188 313.547C295.109 311.698 295.031 310.656 294.953 310.422L290.969 309.406L291.125 306.203ZM372.719 343.43C371.104 343.273 369.268 343.156 367.211 343.078C365.154 343.026 363.604 343 362.562 343H343.656L343.5 339.836L347.523 338.82C347.628 338.482 347.706 337.349 347.758 335.422C347.836 333.495 347.875 331.385 347.875 329.094V320.148C347.875 317.779 347.836 315.643 347.758 313.742C347.706 311.815 347.628 310.708 347.523 310.422L343.5 309.406L343.656 306.203H362.133L362.289 309.523L357.094 310.5C356.99 310.708 356.885 311.737 356.781 313.586C356.703 315.409 356.664 317.596 356.664 320.148V329.094C356.664 331.568 356.677 333.547 356.703 335.031C356.755 336.516 356.833 337.518 356.938 338.039C358.24 338.247 359.906 338.352 361.938 338.352H364.281C365.115 338.352 365.883 338.312 366.586 338.234C367.315 338.156 367.901 338.078 368.344 338L371.898 331.086L375.805 331.984L372.719 343.43ZM416.93 343.391C415.706 343.286 414.247 343.195 412.555 343.117C410.862 343.039 409.352 343 408.023 343H386.461L386.266 339.836L390.25 338.82C390.354 338.56 390.445 337.505 390.523 335.656C390.628 333.807 390.68 331.62 390.68 329.094V320.148C390.68 317.57 390.628 315.37 390.523 313.547C390.445 311.698 390.354 310.656 390.25 310.422L386.266 309.406L386.461 306.203H405.641C406.943 306.203 408.583 306.177 410.562 306.125C412.568 306.073 414.195 305.995 415.445 305.891L417.164 315.266L413.453 315.773L411.07 310.227C410.497 310.096 409.99 310.018 409.547 309.992C409.13 309.94 408.674 309.914 408.18 309.914H403.648C402.815 309.914 402.021 309.94 401.266 309.992C400.536 310.018 399.964 310.057 399.547 310.109C399.443 311.073 399.391 313.664 399.391 317.883V330.773C399.391 335.044 399.443 337.688 399.547 338.703C400.302 338.833 401.083 338.924 401.891 338.977C402.724 339.003 403.805 339.016 405.133 339.016H408.297C409.885 339.016 410.888 339.003 411.305 338.977C411.747 338.924 412.229 338.859 412.75 338.781L416.188 332.453L419.781 333.156L416.93 343.391ZM408.883 330.5L408.258 326.32C407.971 326.294 407.503 326.268 406.852 326.242C406.201 326.216 405.471 326.203 404.664 326.203H401.422C400.693 326.203 400.003 326.229 399.352 326.281C398.727 326.333 398.271 326.359 397.984 326.359V321.828C398.271 321.854 398.727 321.906 399.352 321.984C400.003 322.036 400.693 322.062 401.422 322.062H404.664C405.471 322.062 406.201 322.062 406.852 322.062C407.503 322.036 407.971 322.01 408.258 321.984L408.883 317.805H412.438V330.5H408.883Z" fill="white"/>
</svg>
